<svg xmlns="http://www.w3.org/2000/svg" width="152" height="26" viewBox="0 0 152 26">
    <defs>
        <linearGradient id="qzek6e8sua" x2="1" y1="1" gradientUnits="objectBoundingBox">
            <stop offset="0" stop-color="#ffd500"/>
            <stop offset=".502" stop-color="#ff8040"/>
            <stop offset="1" stop-color="#ff0093"/>
        </linearGradient>
        <linearGradient id="vtva36a9ab" x2="1" y1="1" gradientUnits="objectBoundingBox">
            <stop offset="0" stop-color="#409fff"/>
            <stop offset="1" stop-color="#40dfff"/>
        </linearGradient>
        <filter id="fm51xp9ymc">
            <feOffset/>
            <feGaussianBlur result="blur" stdDeviation="5"/>
            <feFlood flood-color="#9500ff" flood-opacity=".251" result="color"/>
            <feComposite in="SourceGraphic" in2="blur" operator="out"/>
            <feComposite in="color" operator="in"/>
            <feComposite in2="SourceGraphic" operator="in"/>
        </filter>
    </defs>
    <g>
        <path fill="#525266" fill-rule="evenodd" d="M37.071 4.653h5.449a4.877 4.877 0 0 1 5.18 4.983 4.874 4.874 0 0 1-5.184 4.982h-2.108v4.329h-3.337zm3.334 6.9h1.729c1.4 0 2.155-.756 2.155-1.919s-.752-1.919-2.155-1.919H40.4zm12.682-2.74a3.741 3.741 0 0 1 1.613-.28h1.118V11.6H54.25c-1.445 0-2.094.735-2.094 2.287v5.064h-3.171V8.533h2.2l.569 1.225a3.744 3.744 0 0 1 1.332-.943zm11.061 10.136a5.509 5.509 0 0 1-2.213.325 5.543 5.543 0 1 1 0-11.067 5.545 5.545 0 0 1 2.213 10.743zM60.9 16.243a2.626 2.626 0 0 0 3.7-2.5 2.665 2.665 0 1 0-5.326 0 2.558 2.558 0 0 0 1.624 2.5zm16.608-6.709l.448-1h2.2v9.026c0 3.573-2.075 5.656-5.654 5.656-3.192 0-5.262-1.554-5.693-3.837h3.271a2.287 2.287 0 0 0 2.32 1.185c1.708 0 2.562-.861 2.562-2.413v-.388a5.3 5.3 0 0 1-3.029.878 5.041 5.041 0 0 1-5.341-5.207 5.02 5.02 0 0 1 5.283-5.207 5.292 5.292 0 0 1 3.633 1.307zm-4.087 6.21a2.453 2.453 0 0 0 1 .122 2.443 2.443 0 1 0-1-.12zm12.743-6.928a3.741 3.741 0 0 1 1.61-.283h1.119V11.6h-1.566c-1.445 0-2.094.735-2.094 2.287v5.064h-3.171V8.533h2.2l.569 1.225a3.745 3.745 0 0 1 1.333-.942zm13.978 2.665a5.372 5.372 0 0 1 .423 2.158 4.769 4.769 0 0 1-.083 1.04H92.39a2.367 2.367 0 0 0 2.564 2.021 2.451 2.451 0 0 0 2.132-.98h3.253a5.5 5.5 0 0 1-5.449 3.553 5.4 5.4 0 0 1-5.711-5.534 5.4 5.4 0 0 1 5.672-5.534 5.368 5.368 0 0 1 5.29 3.274zm-3.7-.248a2.294 2.294 0 0 0-1.551-.453 2.417 2.417 0 0 0-2.42 1.82h4.839a2.3 2.3 0 0 0-.869-1.367zm14.181 4.631c0 1.9-1.5 3.41-4.449 3.41-3.274 0-4.717-1.47-4.842-3.534h3.253c.122.694.61 1.082 1.586 1.082.874 0 1.22-.345 1.22-.835 0-.592-.753-.8-1.952-1.082-1.688-.408-3.843-.96-3.843-3.328 0-1.838 1.525-3.369 4.33-3.369 2.907 0 4.351 1.511 4.473 3.41h-3.212a1.1 1.1 0 0 0-1.26-.96c-.753 0-1.1.347-1.1.756 0 .592.756.8 1.932 1.041 1.647.345 3.863.897 3.863 3.409zm10.023 0c0 1.9-1.5 3.41-4.449 3.41-3.274 0-4.717-1.47-4.841-3.534h3.253c.122.694.61 1.082 1.586 1.082.874 0 1.22-.345 1.22-.835 0-.592-.753-.8-1.952-1.082-1.688-.408-3.843-.96-3.843-3.328 0-1.838 1.525-3.369 4.33-3.369 2.91 0 4.356 1.511 4.471 3.41h-3.212a1.1 1.1 0 0 0-1.26-.96c-.752 0-1.1.347-1.1.756 0 .592.753.8 1.932 1.041 1.648.345 3.864.897 3.864 3.409zm17.1-11.21l2.154 14.293h-3.376l-1.233-8.818-3.678 8.171h-1.853l-3.66-8.154-1.26 8.8h-3.375l2.155-14.294h3.376l3.68 8.229 3.7-8.229zm13.828 6.827a5.372 5.372 0 0 1 .426 2.157 4.826 4.826 0 0 1-.082 1.04h-8.091a2.367 2.367 0 0 0 2.563 2.022 2.451 2.451 0 0 0 2.132-.98h3.253a5.5 5.5 0 0 1-5.449 3.553 5.4 5.4 0 0 1-5.713-5.534 5.4 5.4 0 0 1 5.672-5.534 5.368 5.368 0 0 1 5.29 3.274zm-3.7-.248a2.294 2.294 0 0 0-1.551-.453 2.416 2.416 0 0 0-2.42 1.817h4.839a2.3 2.3 0 0 0-.866-1.364z" transform="translate(-56 -43.002) translate(56 43.002)"/>
        <g>
            <path fill="url(#qzek6e8sua)" fill-rule="evenodd" d="M3.524 17.673L.315 25.722 8.337 22.5a3.713 3.713 0 1 0-4.813-4.829z" transform="translate(-56 -43.002) translate(56 43.002)"/>
            <g>
                <path fill="url(#vtva36a9ab)" fill-rule="evenodd" d="M14.56 15.243a3.8 3.8 0 0 0-3.795-3.808H2.852A2.861 2.861 0 0 1 .92 6.474l5.353-4.958A5.687 5.687 0 0 1 10.138 0h10.116a5.706 5.706 0 0 1 5.7 5.716v10.071a5.727 5.727 0 0 1-1.5 3.862l-4.948 5.424a2.849 2.849 0 0 1-4.948-1.932z" transform="translate(-56 -43.002) translate(56 43.002)"/>
                <g filter="url(#fm51xp9ymc)" transform="translate(-56 -43.002) matrix(1, 0, 0, 1, 56, 43)">
                    <path fill="#fff" fill-rule="evenodd" d="M14.56 15.243a3.8 3.8 0 0 0-3.795-3.808H2.852A2.861 2.861 0 0 1 .92 6.474l5.353-4.958A5.687 5.687 0 0 1 10.138 0h10.116a5.706 5.706 0 0 1 5.7 5.716v10.071a5.727 5.727 0 0 1-1.5 3.862l-4.948 5.424a2.849 2.849 0 0 1-4.948-1.932z"/>
                </g>
            </g>
        </g>
    </g>
</svg>
